HIERARCHY
ROOT joint_Root
{
	OFFSET 0.0 0.0 0.0
	CHANNELS 6 Xposition Yposition Zposition Zrotation Xrotation Yrotation 
	JOINT Hips
	{
		OFFSET 4.5925 91.4895 -427.239
		CHANNELS 6 Xposition Yposition Zposition Zrotation Xrotation Yrotation 
		JOINT Spine
		{
			OFFSET 15.7357 0.0 0.0
			CHANNELS 6 Xposition Yposition Zposition Zrotation Xrotation Yrotation 
			JOINT Chest
			{
				OFFSET 8.98455 -0.406207 0.0
				CHANNELS 6 Xposition Yposition Zposition Zrotation Xrotation Yrotation 
				JOINT Neck
				{
					OFFSET 16.3773 0.0 0.0
					CHANNELS 6 Xposition Yposition Zposition Zrotation Xrotation Yrotation 
					JOINT Head
					{
						OFFSET 6.45672 0.0 0.0
						CHANNELS 6 Xposition Yposition Zposition Zrotation Xrotation Yrotation 
						End Site
						{
							OFFSET 0.0 0.0 0.0
						}
					}
				}
				JOINT Shoulder_L
				{
					OFFSET 12.9942 -0.242716 4.98039
					CHANNELS 6 Xposition Yposition Zposition Zrotation Xrotation Yrotation 
					JOINT UpperArm_L
					{
						OFFSET 5.34809 0.0 0.0
						CHANNELS 6 Xposition Yposition Zposition Zrotation Xrotation Yrotation 
						JOINT LowerArm_L
						{
							OFFSET 24.3286 1.87007e-05 0.0
							CHANNELS 6 Xposition Yposition Zposition Zrotation Xrotation Yrotation 
							JOINT Hand_L
							{
								OFFSET 22.2916 0.0 0.0
								CHANNELS 6 Xposition Yposition Zposition Zrotation Xrotation Yrotation 
								End Site
								{
									OFFSET 0.0 0.0 0.0
								}
							}
						}
					}
				}
				JOINT Shoulder_R
				{
					OFFSET 12.9945 -0.242716 -4.98039
					CHANNELS 6 Xposition Yposition Zposition Zrotation Xrotation Yrotation 
					JOINT UpperArm_R
					{
						OFFSET -5.34813 0.0 0.0
						CHANNELS 6 Xposition Yposition Zposition Zrotation Xrotation Yrotation 
						JOINT LowerArm_R
						{
							OFFSET -24.3289 0.000322201 0.0
							CHANNELS 6 Xposition Yposition Zposition Zrotation Xrotation Yrotation 
							JOINT Hand_R
							{
								OFFSET -22.2915 -0.000108084 0.0
								CHANNELS 6 Xposition Yposition Zposition Zrotation Xrotation Yrotation 
								End Site
								{
									OFFSET 0.0 0.0 0.0
								}
							}
						}
					}
				}
			}
		}
		JOINT UpperLeg_L
		{
			OFFSET -2.19248 -6.46944 0.0
			CHANNELS 6 Xposition Yposition Zposition Zrotation Xrotation Yrotation 
			JOINT LowerLeg_L
			{
				OFFSET 39.0811 0.0 -1.23785e-05
				CHANNELS 6 Xposition Yposition Zposition Zrotation Xrotation Yrotation 
				JOINT Foot_L
				{
					OFFSET 40.9854 0.0 -1.26872e-05
					CHANNELS 6 Xposition Yposition Zposition Zrotation Xrotation Yrotation 
					JOINT Toes_L
					{
						OFFSET 11.7543 0.0 0.0
						CHANNELS 6 Xposition Yposition Zposition Zrotation Xrotation Yrotation 
						End Site
						{
							OFFSET 0.0 0.0 0.0
						}
					}
				}
			}
		}
		JOINT UpperLeg_R
		{
			OFFSET -2.19251 6.46944 0.0
			CHANNELS 6 Xposition Yposition Zposition Zrotation Xrotation Yrotation 
			JOINT LowerLeg_R
			{
				OFFSET -39.0811 -0.00228153 -0.0401928
				CHANNELS 6 Xposition Yposition Zposition Zrotation Xrotation Yrotation 
				JOINT Foot_R
				{
					OFFSET -40.9854 0.0 0.0
					CHANNELS 6 Xposition Yposition Zposition Zrotation Xrotation Yrotation 
					JOINT Toes_R
					{
						OFFSET -11.7543 0.0 0.0
						CHANNELS 6 Xposition Yposition Zposition Zrotation Xrotation Yrotation 
						End Site
						{
							OFFSET 0.0 0.0 0.0
						}
					}
				}
			}
		}
	}
}
MOTION
Frames:	7
Frame Time:	0.0333333
0.000000 0.000000 0.000000 0.000000 0.000000 -0.000000 -236.755000 86.388800 188.272000 78.390300 82.972300 13.119300 15.735700 0.000005 -0.000001 97.156000 82.564600 -96.095600 8.984550 -0.406207 -0.000000 6.975440 1.838840 2.006510 16.377300 -0.000001 -0.000001 -2.331650 -1.408010 3.199190 6.456720 -0.000001 -0.000000 -4.190220 -0.875317 1.459670 12.994200 -0.242716 4.980390 -90.461800 1.252150 -69.735600 5.348090 -0.000007 -0.000001 -61.061000 44.487000 9.324110 24.328600 0.000019 0.000005 8.013690 3.276970 -67.924500 22.291600 -0.000001 0.000005 7.168990 5.534420 -7.990910 12.994500 -0.242716 -4.980390 88.947900 5.396730 -78.953100 -5.348130 -0.000001 -0.000004 -54.564400 43.977700 -36.645200 -24.328900 0.000322 -0.000009 -9.057970 3.883910 -113.007000 -22.291500 -0.000108 -0.000004 22.166900 5.639910 -14.121700 -2.192480 -6.469440 -0.000000 -175.815000 -5.980180 -21.445200 39.081100 -0.000007 -0.000012 -0.036578 0.004638 82.785700 40.985400 -0.000006 -0.000013 7.456420 -5.418770 -45.830100 11.754300 -0.000000 0.000003 -0.008584 -0.092748 -20.354200 -2.192510 6.469440 -0.000001 -175.108000 15.302600 162.870000 -39.081100 -0.002282 -0.040193 -0.167017 0.154551 47.771100 -40.985400 0.000008 0.000006 7.130510 -1.966260 -80.326200 -11.754300 -0.000006 -0.000006 -0.003124 -0.041993 -18.280900
0.000000 0.000000 0.000000 0.000000 0.000000 -0.000000 -233.337000 88.090700 188.426000 89.266000 82.729400 1.752680 15.735700 0.000005 -0.000001 104.928000 82.483200 -104.643000 8.984550 -0.406207 -0.000000 6.762330 3.857690 0.341591 16.377300 -0.000001 -0.000001 -2.444160 -2.125560 3.415580 6.456720 -0.000001 -0.000000 -4.837190 -3.562780 3.248980 12.994200 -0.242716 4.980390 -89.437500 -1.438500 -68.650400 5.348090 -0.000007 -0.000001 -61.243000 46.587700 15.533700 24.328600 0.000019 0.000005 4.850750 1.584230 -71.965200 22.291600 -0.000001 0.000005 5.823870 5.541200 -8.296270 12.994500 -0.242716 -4.980390 89.328200 3.648090 -79.559000 -5.348130 -0.000001 -0.000004 -55.177800 40.676100 -38.817800 -24.328900 0.000322 -0.000009 -10.451300 6.031610 -119.663000 -22.291500 -0.000108 -0.000004 22.356400 5.629580 -13.304600 -2.192480 -6.469440 -0.000000 -178.676000 -4.801980 -27.834500 39.081100 -0.000007 -0.000012 -0.101389 0.011598 83.478500 40.985400 -0.000006 -0.000013 8.994370 -8.100960 -49.137000 11.754300 -0.000000 0.000003 -0.007662 -0.085257 -20.048200 -2.192510 6.469440 -0.000001 -177.324000 16.543000 168.464000 -39.081100 -0.002282 -0.040193 0.072790 -0.080699 40.741400 -40.985400 0.000008 0.000006 8.478960 -0.293291 -79.335200 -11.754300 -0.000006 -0.000006 -0.003972 -0.051147 -18.653600
0.000000 0.000000 0.000000 0.000000 0.000000 -0.000000 -229.842000 89.687900 188.430000 103.513000 82.171900 -13.719600 15.735700 0.000005 -0.000001 111.076000 82.594200 -111.754000 8.984550 -0.406207 -0.000000 6.107160 5.321540 -1.640630 16.377300 -0.000001 -0.000001 -2.549190 -2.841230 3.121320 6.456720 -0.000001 -0.000000 -4.947540 -5.485520 4.008840 12.994200 -0.242716 4.980390 -88.451100 -3.856450 -68.098900 5.348090 -0.000007 -0.000001 -62.518400 46.473200 21.818900 24.328600 0.000019 0.000005 3.854290 0.963980 -75.985000 22.291600 -0.000001 0.000005 5.398500 5.537980 -8.150020 12.994500 -0.242716 -4.980390 89.542400 2.504200 -79.641800 -5.348130 -0.000001 -0.000004 -55.479800 37.764000 -39.128800 -24.328900 0.000322 -0.000009 -11.013100 7.471890 -123.750000 -22.291500 -0.000108 -0.000004 22.176700 5.623070 -12.832300 -2.192480 -6.469440 -0.000000 178.155000 -2.738170 -33.109400 39.081100 -0.000007 -0.000012 -0.118801 0.021193 79.888700 40.985400 -0.000006 -0.000013 8.796260 -8.351600 -53.004100 11.754300 -0.000000 0.000003 -0.007518 -0.084064 -19.999500 -2.192510 6.469440 -0.000001 179.447000 18.464200 173.038000 -39.081100 -0.002282 -0.040193 0.046653 -0.064677 33.837800 -40.985400 0.000008 0.000006 7.928730 3.015280 -76.635000 -11.754300 -0.000006 -0.000006 -0.006148 -0.072174 -19.510600
0.000000 0.000000 0.000000 0.000000 0.000000 -0.000000 -226.472000 90.832000 188.432000 112.956000 81.327300 -24.620300 15.735700 0.000005 -0.000001 115.389000 82.764000 -116.877000 8.984550 -0.406207 -0.000000 5.416240 6.221600 -3.270470 16.377300 -0.000001 -0.000001 -2.661350 -3.266430 2.440510 6.456720 -0.000001 -0.000000 -4.914200 -6.737700 3.986330 12.994200 -0.242716 4.980390 -87.567800 -5.948670 -67.714400 5.348090 -0.000007 -0.000001 -64.056500 44.832400 26.969700 24.328600 0.000019 0.000005 3.061790 0.610263 -78.739700 22.291600 -0.000001 0.000005 4.731330 5.530300 -7.805580 12.994500 -0.242716 -4.980390 89.642200 1.936130 -79.526800 -5.348130 -0.000001 -0.000004 -54.656900 35.591200 -39.308400 -24.328900 0.000322 -0.000009 -11.465300 8.198660 -125.112000 -22.291500 -0.000108 -0.000004 21.961000 5.617160 -12.427500 -2.192480 -6.469440 -0.000000 176.093000 -0.648732 -37.048200 39.081100 -0.000007 -0.000012 -0.094435 0.029025 72.918600 40.985400 -0.000006 -0.000013 7.678800 -7.452270 -56.565600 11.754300 -0.000000 0.000003 -0.006367 -0.074139 -19.594400 -2.192510 6.469440 -0.000001 176.530000 21.369100 176.508000 -39.081100 -0.002282 -0.040193 0.021961 -0.034666 28.286300 -40.985400 0.000008 0.000006 7.552060 7.086490 -73.249800 -11.754300 -0.000006 -0.000006 -0.191799 -0.300772 -21.269500
0.000000 0.000000 0.000000 0.000000 0.000000 -0.000000 -223.220000 91.277100 188.509000 114.250000 80.842400 -27.054000 15.735700 0.000005 -0.000001 118.275000 82.865300 -120.088000 8.984550 -0.406207 -0.000000 4.938750 6.791060 -3.918260 16.377300 -0.000001 -0.000001 -2.652800 -3.400140 1.481720 6.456720 -0.000001 -0.000000 -4.995800 -7.586560 3.457040 12.994200 -0.242716 4.980390 -86.865700 -7.582440 -67.462300 5.348090 -0.000007 -0.000001 -65.421000 41.902500 30.371100 24.328600 0.000019 0.000005 3.468420 0.601546 -80.170700 22.291600 -0.000001 0.000005 3.545710 5.517350 -7.247180 12.994500 -0.242716 -4.980390 89.695900 1.631580 -79.440600 -5.348130 -0.000001 -0.000004 -53.082400 34.383300 -39.322000 -24.328900 0.000322 -0.000009 -11.897400 8.251340 -124.263000 -22.291500 -0.000108 -0.000004 21.779300 5.610300 -11.976700 -2.192480 -6.469440 -0.000000 175.805000 0.234435 -39.301800 39.081100 -0.000007 -0.000012 -0.051093 0.025726 63.279300 40.985400 -0.000006 -0.000013 6.462660 -6.201670 -59.347800 11.754300 -0.000000 0.000003 -0.006840 -0.078296 -19.764100 -2.192510 6.469440 -0.000001 174.150000 26.054100 179.697000 -39.081100 -0.002282 -0.040193 -0.003250 0.014365 24.555500 -40.985400 0.000008 0.000006 7.548280 13.085600 -70.878900 -11.754300 -0.000006 -0.000006 -1.327760 -1.446550 -23.597000
0.000000 0.000000 0.000000 0.000000 0.000000 -0.000000 -220.024000 90.682500 188.648000 109.541000 80.092800 -23.231800 15.735700 0.000005 -0.000001 120.934000 82.889100 -122.752000 8.984550 -0.406207 -0.000000 4.582710 7.348560 -3.929280 16.377300 -0.000001 -0.000001 -2.712720 -3.085830 0.455077 6.456720 -0.000001 -0.000000 -4.977300 -8.056910 2.625190 12.994200 -0.242716 4.980390 -86.403300 -8.516280 -67.001200 5.348090 -0.000007 -0.000001 -66.077300 38.356400 31.866400 24.328600 0.000019 0.000005 5.046840 0.828737 -80.698300 22.291600 -0.000001 0.000005 2.240480 5.505500 -6.752600 12.994500 -0.242716 -4.980390 89.714600 1.544790 -79.532400 -5.348130 -0.000001 -0.000004 -51.380100 34.387100 -39.257400 -24.328900 0.000322 -0.000009 -12.696800 7.917010 -121.441000 -22.291500 -0.000108 -0.000004 21.720400 5.607340 -11.790700 -2.192480 -6.469440 -0.000000 176.356000 -1.230300 -40.391200 39.081100 -0.000007 -0.000012 -0.005916 0.004572 52.322800 40.985400 -0.000006 -0.000013 4.969560 -3.584460 -61.915000 11.754300 -0.000000 0.000003 -0.006940 -0.079154 -19.799100 -2.192510 6.469440 -0.000001 172.390000 28.313900 -178.153000 -39.081100 -0.002282 -0.040193 -0.027362 0.068757 24.044100 -40.985400 0.000008 0.000006 7.422770 17.936300 -71.825100 -11.754300 -0.000006 -0.000006 -1.282270 -1.373290 -24.764500
0.000000 0.000000 0.000000 0.000000 0.000000 -0.000000 -216.686000 89.316600 188.873000 102.153000 78.644900 -15.870200 15.735700 0.000005 -0.000001 122.040000 82.578800 -123.718000 8.984550 -0.406207 -0.000000 4.971560 7.899660 -3.700080 16.377300 -0.000001 -0.000001 -3.034920 -2.518960 -0.284572 6.456720 -0.000001 -0.000000 -5.285730 -7.914040 1.682660 12.994200 -0.242716 4.980390 -86.430600 -8.305540 -66.643800 5.348090 -0.000007 -0.000001 -65.826600 33.805800 31.925000 24.328600 0.000019 0.000005 6.715360 1.095420 -80.778000 22.291600 -0.000001 0.000005 1.246840 5.492930 -6.250850 12.994500 -0.242716 -4.980390 89.695500 1.714460 -79.925900 -5.348130 -0.000001 -0.000004 -50.158900 35.465200 -38.898600 -24.328900 0.000322 -0.000009 -13.926500 7.210350 -116.849000 -22.291500 -0.000108 -0.000004 21.695600 5.603610 -11.559800 -2.192480 -6.469440 -0.000000 177.383000 -3.794530 -40.003400 39.081100 -0.000007 -0.000012 0.010769 -0.011934 42.057900 40.985400 -0.000006 -0.000013 3.224530 -0.580106 -63.872400 11.754300 -0.000000 0.000003 -0.006478 -0.075130 -19.634900 -2.192510 6.469440 -0.000001 171.643000 26.067100 -176.385000 -39.081100 -0.002282 -0.040193 -0.049544 0.109655 25.734600 -40.985400 0.000008 0.000006 7.546290 18.432000 -74.959800 -11.754300 -0.000006 -0.000006 -1.087170 -1.177470 -25.342400
